<svg width="237" height="205" viewBox="0 0 237 205" fill="none" xmlns="http://www.w3.org/2000/svg">
<path d="M70.8779 127.613L41.8049 124.779L51.5649 114.437L52.948 115.743L45.8479 123.262L98.74 128.418L64.186 195.274L125.58 137.706L126.88 139.093L57.4141 204.229L95.76 130.038L70.873 127.612" fill="#FFAF00"/>
<path d="M177.622 84.2791L176.263 83.1431L180.652 77.894L128.696 76.825L157.196 8.21104L86.437 81.689L85.1609 80.461L162.434 0.217041L131.325 75.108L184.376 76.1991L177.622 84.2791Z" fill="#FFAF00"/>
<path d="M119.462 122.963C119.044 122.421 118.504 121.986 117.884 121.695C117.265 121.404 116.585 121.265 115.901 121.289C113.801 121.289 112.79 122.169 112.79 123.289C112.79 124.598 114.335 124.962 116.137 125.178C119.269 125.563 122.188 126.378 122.188 129.962C122.188 133.309 119.226 134.747 115.879 134.747C112.812 134.747 110.451 133.802 109.336 131.056L111.696 129.833C112.077 130.611 112.685 131.255 113.439 131.681C114.194 132.106 115.06 132.292 115.923 132.215C117.703 132.215 119.377 131.592 119.377 129.962C119.377 128.546 117.896 127.967 115.901 127.751C112.833 127.387 110.001 126.572 110.001 123.203C110.001 120.113 113.047 118.848 115.815 118.826C118.154 118.826 120.578 119.491 121.715 121.808L119.462 122.963Z" fill="white"/>
<path d="M129.334 121.912H124.57V119.337H136.929V121.912H132.166V134.356H129.334V121.912Z" fill="white"/>
<path d="M153.344 119.359V127.959C153.344 132.4 150.619 134.674 146.844 134.674C143.244 134.674 140.171 132.486 140.171 127.959V119.359H142.981V127.959C142.981 130.659 144.526 132.099 146.865 132.099C149.204 132.099 150.534 130.533 150.534 127.959V119.359H153.344Z" fill="white"/>
<path d="M170.4 126.718C170.464 130.518 168.147 134.356 162.89 134.356H156.99V119.337H162.89C168.043 119.337 170.338 123.006 170.4 126.718ZM159.8 131.632H162.89C166.302 131.632 167.653 129.142 167.59 126.696C167.621 126.072 167.519 125.448 167.294 124.865C167.068 124.283 166.723 123.754 166.28 123.313C165.837 122.872 165.306 122.529 164.722 122.306C164.138 122.083 163.514 121.986 162.89 122.019H159.8V131.632Z" fill="white"/>
<path d="M184.543 134.356H173.3V119.337H184.543V122.083H176.111V125.538H184.243V128.177H176.111V131.567H184.543V134.356Z" fill="white"/>
<path d="M198.126 119.316H200.958V134.356H199.2V134.378L191.3 124.229V134.356H188.468V119.337H190.768L198.128 128.649L198.126 119.316Z" fill="white"/>
<path d="M208.512 121.912H203.749V119.337H216.107V121.912H211.344V134.356H208.512V121.912Z" fill="white"/>
<path d="M228.166 122.963C227.749 122.421 227.207 121.986 226.588 121.695C225.969 121.404 225.289 121.265 224.605 121.289C222.505 121.289 221.494 122.169 221.494 123.289C221.494 124.598 223.038 124.962 224.841 125.178C227.973 125.563 230.891 126.378 230.891 129.962C230.891 133.309 227.93 134.747 224.584 134.747C221.515 134.747 219.155 133.802 218.039 131.056L220.399 129.833C220.78 130.611 221.388 131.255 222.143 131.681C222.897 132.106 223.763 132.292 224.626 132.215C226.407 132.215 228.081 131.592 228.081 129.962C228.081 128.546 226.6 127.967 224.605 127.751C221.536 127.387 218.705 126.572 218.705 123.203C218.705 120.113 221.752 118.848 224.52 118.826C226.858 118.826 229.283 119.491 230.42 121.808L228.166 122.963Z" fill="white"/>
<path d="M21.772 85.9711L23.416 87.4101L20.949 90.2881C22.2146 91.7181 23.1357 93.4191 23.6416 95.2605C24.1475 97.1019 24.2249 99.0348 23.8677 100.911C23.5104 102.787 22.7281 104.556 21.5808 106.082C20.4335 107.609 18.9516 108.852 17.249 109.717C21.721 111.311 24.187 114.446 24.187 118.817C24.187 125.653 18.8419 128.943 12.1089 128.943C5.37589 128.943 0.0810547 125.243 0.0810547 118.817H2.6001C2.6001 124.008 7.01989 126.475 12.1089 126.475C17.1979 126.475 21.7209 124.214 21.7209 118.817C21.7209 113.369 16.8379 111.21 12.1089 111.21C4.75889 111.21 0.184082 105.71 0.184082 98.9251C0.184082 91.0101 5.52889 86.5391 12.1089 86.5391C14.686 86.5732 17.1939 87.3785 19.3091 88.8511L21.772 85.9711ZM2.69995 98.9231C2.69995 104.167 6.29996 108.689 12.106 108.689C14.6532 108.628 17.075 107.571 18.8525 105.746C20.63 103.92 21.6217 101.471 21.615 98.9231C21.615 92.4981 17.349 89.0551 12.106 89.0551C6.91696 89.0551 2.69995 92.2931 2.69995 98.9231Z" fill="white"/>
<path d="M31.6431 87.0001L31.7429 91.5231C33.3359 88.0791 36.9341 86.7421 40.1721 86.7421C42.0943 86.7002 43.9872 87.2182 45.6201 88.2331L44.49 90.2891C43.1888 89.5006 41.6934 89.0913 40.1721 89.1071C37.9368 89.1222 35.7988 90.024 34.228 91.6144C32.6573 93.2049 31.7821 95.3538 31.7949 97.5891V112.389H29.2749V87.0001H31.6431Z" fill="white"/>
<path d="M73.844 87.0001V112.39H71.3259V106.99C70.2593 108.786 68.7378 110.269 66.9148 111.289C65.0917 112.309 63.0319 112.83 60.9431 112.799C57.5084 112.757 54.2287 111.362 51.8149 108.918C49.4011 106.475 48.0476 103.178 48.0476 99.7431C48.0476 96.3081 49.4011 93.0115 51.8149 90.5677C54.2287 88.1238 57.5084 86.7296 60.9431 86.6871C63.0437 86.624 65.1213 87.1366 66.9514 88.1695C68.7815 89.2024 70.2943 90.7162 71.3259 92.5471V87.0001H73.844ZM50.561 99.7001C50.5008 101.091 50.7263 102.48 51.2234 103.781C51.7205 105.082 52.4787 106.268 53.4514 107.265C54.4241 108.261 55.5905 109.048 56.8789 109.577C58.1674 110.106 59.5506 110.365 60.9431 110.339C75.0781 110.339 75.0781 89.1111 60.9431 89.1111C59.5532 89.0785 58.1713 89.3318 56.8833 89.8552C55.5953 90.3785 54.4284 91.1608 53.4551 92.1535C52.4817 93.1463 51.7227 94.3283 51.2249 95.6264C50.727 96.9245 50.5011 98.3111 50.561 99.7001Z" fill="white"/>
<path d="M101.295 87L85.823 122.979H83.1499L87.8269 112.079L77.6499 87H80.375L86.2859 102.008L89.2671 109.359L92.196 101.959L98.5701 87H101.295Z" fill="white"/>
<path d="M123.6 91.6251C122.523 90.6788 121.268 89.9555 119.91 89.4967C118.551 89.0379 117.116 88.8528 115.685 88.9521C111.727 88.9001 107.923 90.3911 108.026 93.6291C108.126 97.0221 112.549 97.6901 115.736 98.2551C120.259 99.0261 126.478 99.7971 126.221 105.708C126.068 111.308 120.259 112.802 115.787 112.802C111.315 112.802 106.896 111.102 104.687 107.713L106.537 106.068C108.645 109.101 112.448 110.386 115.837 110.386C118.921 110.386 123.598 109.564 123.753 105.554C123.853 101.905 119.64 101.185 115.477 100.517C110.543 99.6951 105.66 98.7691 105.608 93.6811C105.557 88.6951 110.543 86.5371 115.683 86.5881C119.158 86.4395 122.552 87.657 125.14 89.9801L123.6 91.6251Z" fill="white"/>
<path d="M137.639 80.139V87H146.273V89.107H137.639V104.578C137.639 108.022 138.358 110.438 142.316 110.438C143.677 110.382 145.01 110.031 146.222 109.41L147.096 111.466C145.62 112.249 143.986 112.688 142.316 112.751C136.916 112.751 135.171 109.565 135.171 104.578V89.106H129.771V87H135.171V80.4L137.639 80.139Z" fill="white"/>
<path d="M150.9 99.746C150.9 91.676 156.657 86.537 163.8 86.537C170.943 86.537 176.7 91.676 176.7 99.746C176.7 107.816 170.943 112.746 163.8 112.746C156.657 112.746 150.9 107.815 150.9 99.746ZM174.236 99.746C174.236 93.167 169.558 88.9 163.801 88.9C158.044 88.9 153.367 93.167 153.367 99.746C153.367 106.325 158.045 110.283 163.801 110.283C169.557 110.283 174.237 106.325 174.237 99.746H174.236Z" fill="white"/>
<path d="M184.982 87V91.523C185.902 89.9549 187.227 88.6641 188.82 87.7867C190.412 86.9093 192.211 86.4779 194.028 86.538C200.813 86.538 205.49 90.701 205.49 97.738V112.39H202.972V97.79C202.972 92.033 199.425 88.949 193.926 89C188.683 89.052 185.033 93.01 185.033 98.252V112.39H182.515V87H184.982Z" fill="white"/>
<path d="M210.634 99.7001C210.588 97.9837 210.888 96.2757 211.518 94.6782C212.147 93.0807 213.092 91.6266 214.296 90.4029C215.501 89.1792 216.94 88.2111 218.527 87.5564C220.114 86.9018 221.817 86.5741 223.534 86.5931C230.678 86.5931 237.052 90.9621 236.075 100.881H213.2C213.351 103.488 214.517 105.933 216.448 107.691C218.379 109.45 220.922 110.382 223.532 110.288C226.873 110.288 230.779 108.951 232.681 106.433L234.481 107.872C232.014 111.11 227.593 112.755 223.533 112.755C216.39 112.75 210.634 107.764 210.634 99.7001ZM233.815 98.6721C233.763 92.4011 229.651 88.9051 223.535 88.9051C218.292 88.9051 213.769 92.4521 213.203 98.6721H233.815Z" fill="white"/>
</svg>
