<svg width="140" height="146" viewBox="0 0 140 146" fill="none" xmlns="http://www.w3.org/2000/svg">
<path d="M134.8 2.70591C129.979 -0.617087 124.1 0.686812 120.5 5.87681C117.991 9.49981 115.5 13.2359 113.086 16.8469C111.939 18.5636 110.791 20.2782 109.642 21.9908L67.2569 84.9839L65.3938 83.1119C63.2952 81.0019 61.2322 78.9178 59.2049 76.8598C54.5229 72.1198 50.1049 67.6419 45.5299 63.1979C43.5888 61.2203 40.9484 60.0848 38.1778 60.0359C36.8621 60.0465 35.5622 60.3235 34.3564 60.8501C33.1506 61.3767 32.0639 62.1419 31.1618 63.0998C27.1618 67.1998 27.2479 72.9889 31.3689 77.1869C42.2109 88.2339 52.1049 98.1398 61.6159 107.47C62.6702 108.58 63.9584 109.441 65.3869 109.991C66.8155 110.54 68.3486 110.765 69.8749 110.649C71.3591 110.469 72.7845 109.96 74.0473 109.159C75.3101 108.358 76.3786 107.286 77.1748 106.021C95.1749 79.4209 114.233 51.0988 137.151 16.9028C140.494 11.9148 139.506 5.94391 134.8 2.70591Z" fill="#F2B23E"/>
<path d="M50.4929 20.3999C41.6429 20.3999 32.8529 20.3998 24.0629 20.4128C9.35594 20.4278 0.21493 29.6029 0.20393 44.3569C0.18593 70.2163 0.18593 96.0759 0.20393 121.936C0.21493 136.577 9.24396 145.699 23.768 145.742C50.342 145.822 76.7019 145.823 102.115 145.742C116.495 145.697 125.466 136.686 125.527 122.225C125.586 108.105 125.567 93.7449 125.548 79.8589L125.536 70.5779C125.382 70.8079 125.228 71.0362 125.075 71.2628C121.785 76.1408 118.675 80.7479 115.775 85.4369C114.649 87.2644 113.999 89.3447 113.883 91.4879C113.725 98.1259 113.745 104.895 113.765 111.441C113.774 114.911 113.785 118.381 113.77 121.851C113.735 129.988 109.747 133.951 101.577 133.958C77.077 133.987 51.8249 133.988 24.3829 133.958C15.7979 133.949 12.134 130.258 12.13 121.622C12.1193 96.0218 12.1193 70.4219 12.13 44.8219C12.13 35.8529 15.6119 32.3568 24.5399 32.3508C29.1906 32.3508 33.843 32.3508 38.497 32.3508C50.649 32.3508 63.2319 32.3558 75.5969 32.2878C76.3996 32.3043 77.1919 32.1047 77.8909 31.7098C80.2819 28.4558 82.568 24.9789 84.991 21.2979C85.1836 21.0032 85.379 20.7059 85.577 20.4059H69.718C63.2666 20.4019 56.8583 20.3999 50.4929 20.3999Z" fill="white"/>
</svg>
