<svg width="224" height="76" viewBox="0 0 224 76" fill="none" xmlns="http://www.w3.org/2000/svg">
<path d="M0.0499878 75.233L17.591 45.706L0.0469971 44.674L35.267 7.78003L23.8 34.445L43.629 34.771L0.0499878 75.233ZM4.10797 43.076L20.708 44.052L8.125 65.235L39.038 36.529L21.031 36.235L29.555 16.422L4.10797 43.076Z" fill="white"/>
<path d="M49.905 26.439H39.676V24.5H62.319V26.442H52.089V52.76H49.905V26.439Z" fill="white"/>
<path d="M88.9611 24.4559V42.0459C88.9611 56.8459 67.2891 56.8849 67.2891 42.0459V24.4559H69.4311V42.0459C69.4311 54.2159 86.8181 54.1749 86.8181 42.0459V24.4559H88.9611Z" fill="white"/>
<path d="M118.637 38.285C118.798 45.485 114.189 52.76 104.282 52.76H94.7V24.46H104.283C113.865 24.456 118.474 31.331 118.637 38.285ZM96.8829 26.519V50.658H104.283C112.694 50.658 116.575 44.351 116.454 38.285C116.333 32.385 112.454 26.519 104.283 26.519H96.8829Z" fill="white"/>
<path d="M125.709 37.517H142.287V39.497H125.709V50.658H143.581V52.758H123.566V24.458H143.095V26.521H125.709V37.517Z" fill="white"/>
<path d="M150.208 24.4559L169.253 47.8679V24.4559H171.4V52.7559H170.549L151.462 29.3899V52.7599H149.278V24.4599L150.208 24.4559Z" fill="white"/>
<path d="M185.747 26.439H175.517V24.5H198.16V26.442H187.931V52.76H185.747V26.439Z" fill="white"/>
<path d="M220.639 29.914C218.577 26.599 215.261 26.114 212.067 26.073C208.751 26.073 203.495 27.287 203.495 31.816C203.495 35.416 207.377 36.263 212.148 37.153C217.606 38.205 223.267 39.175 223.267 45.28C223.227 51.668 216.797 53.205 212.067 53.205C207.659 53.205 202.645 51.385 200.462 47.058L202.402 46.089C204.141 49.526 208.589 51.224 212.067 51.224C215.545 51.224 221.084 50.253 221.084 45.239C221.124 40.994 216.434 40.063 211.784 39.175C206.608 38.163 201.311 37.112 201.311 31.897C201.19 25.912 207.417 24.053 212.067 24.053C216.11 24.053 219.628 24.699 222.418 28.863L220.639 29.914Z" fill="white"/>
<path d="M116.871 2.69995L118.885 4.22195L117.654 5.78896C118.444 6.69 118.861 7.85904 118.818 9.05695C118.865 9.89407 118.67 10.727 118.258 11.457C117.845 12.1869 117.232 12.7832 116.491 13.175C117.203 13.4704 117.806 13.9805 118.215 14.6343C118.624 15.2881 118.819 16.0531 118.773 16.823C118.773 19.866 116.446 21.747 113.245 21.747C110.044 21.747 107.65 19.799 107.65 16.823H110.358C110.358 18.255 111.679 19.195 113.245 19.195C114.811 19.195 116.045 18.345 116.045 16.823C116.045 15.301 114.613 14.607 113.245 14.607C109.798 14.607 107.65 12.502 107.65 9.05695C107.619 8.31369 107.742 7.57206 108.012 6.87892C108.283 6.18578 108.693 5.55619 109.219 5.02993C109.745 4.50367 110.374 4.09217 111.067 3.82143C111.76 3.55068 112.502 3.42658 113.245 3.45695C114.132 3.405 115.015 3.62364 115.775 4.08395L116.871 2.69995ZM110.358 9.05695C110.332 9.45026 110.388 9.8446 110.521 10.2156C110.654 10.5866 110.862 10.9264 111.131 11.2139C111.401 11.5014 111.727 11.7306 112.088 11.8873C112.45 12.044 112.84 12.1248 113.234 12.1248C113.628 12.1248 114.018 12.044 114.38 11.8873C114.741 11.7306 115.067 11.5014 115.336 11.2139C115.606 10.9264 115.814 10.5866 115.947 10.2156C116.08 9.8446 116.135 9.45026 116.11 9.05695C116.141 8.66014 116.09 8.26112 115.96 7.88499C115.83 7.50887 115.623 7.16377 115.353 6.87141C115.083 6.57904 114.755 6.34574 114.39 6.18618C114.026 6.02662 113.632 5.94425 113.234 5.94425C112.836 5.94425 112.442 6.02662 112.077 6.18618C111.713 6.34574 111.385 6.57904 111.115 6.87141C110.845 7.16377 110.638 7.50887 110.508 7.88499C110.378 8.26112 110.326 8.66014 110.358 9.05695Z" fill="white"/>
<path d="M124.218 3.81903L124.418 5.09503C124.735 4.5659 125.195 4.13771 125.746 3.86044C126.297 3.58316 126.915 3.46823 127.529 3.52903C128.575 3.51176 129.589 3.88713 130.371 4.58103L129.14 6.95403C128.875 6.7104 128.565 6.52167 128.227 6.39877C127.889 6.27586 127.53 6.22123 127.171 6.23803C126.797 6.20533 126.421 6.2557 126.069 6.38554C125.717 6.51538 125.398 6.72147 125.134 6.98905C124.871 7.25664 124.671 7.5791 124.547 7.93334C124.423 8.28757 124.379 8.66481 124.418 9.03803V14.857H121.688V3.81903H124.218Z" fill="white"/>
<path d="M141.277 3.81893H143.9V14.8529H141.327L141.192 13.2419C140.81 13.8443 140.281 14.3392 139.654 14.6798C139.027 15.0203 138.324 15.1952 137.611 15.1879C134.344 15.2099 131.927 13.1969 131.927 9.32592C131.867 8.55423 131.974 7.77869 132.242 7.05236C132.509 6.32604 132.931 5.66609 133.477 5.11768C134.023 4.56927 134.681 4.14536 135.407 3.87494C136.132 3.60453 136.907 3.494 137.679 3.55093C138.368 3.52541 139.053 3.67644 139.668 3.9897C140.283 4.30297 140.807 4.76808 141.192 5.34093L141.277 3.81893ZM134.653 9.32592C134.625 9.76638 134.69 10.2078 134.843 10.6216C134.997 11.0355 135.235 11.4127 135.543 11.7289C135.851 12.0451 136.221 12.2934 136.631 12.4577C137.04 12.622 137.48 12.6987 137.921 12.6829C142.221 12.6829 142.221 5.99092 137.921 5.99092C137.481 5.97241 137.042 6.04655 136.633 6.20851C136.224 6.37047 135.853 6.61664 135.545 6.93108C135.237 7.24551 134.998 7.62119 134.844 8.03375C134.691 8.44631 134.626 8.88654 134.653 9.32592Z" fill="white"/>
<path d="M157.981 3.81897L151.245 19.464H148.245L150.304 14.675L145.9 3.81897H149.078L150.756 8.58597L151.8 11.7L152.941 8.65697L154.955 3.82197L157.981 3.81897Z" fill="white"/>
<path d="M167.746 6.75101C167.38 6.41246 166.949 6.15091 166.48 5.98188C166.011 5.81284 165.513 5.73977 165.015 5.76701C163.715 5.76701 163.001 6.16701 163.001 6.86701C163.001 7.58301 163.65 7.98601 165.06 8.07501C167.141 8.20801 169.782 8.67501 169.782 11.611C169.782 13.559 168.193 15.237 165.038 15.237C164.096 15.3018 163.15 15.159 162.269 14.8186C161.388 14.4782 160.592 13.9486 159.938 13.267L161.281 11.321C162.329 12.2625 163.673 12.8083 165.081 12.864C166.11 12.886 167.072 12.349 167.072 11.543C167.072 10.783 166.446 10.47 164.879 10.381C162.797 10.224 160.314 9.46201 160.314 6.95701C160.314 4.40501 162.954 3.50901 164.968 3.50901C165.745 3.45712 166.525 3.559 167.263 3.80883C168.001 4.05867 168.682 4.45156 169.268 4.96501L167.746 6.75101Z" fill="white"/>
<path d="M176.5 0.708984V3.84299H179.544V6.19199H176.478V10.959C176.449 11.16 176.464 11.365 176.524 11.5592C176.583 11.7534 176.685 11.932 176.823 12.0819C176.96 12.2319 177.128 12.3495 177.316 12.4263C177.504 12.5031 177.707 12.5372 177.91 12.526C178.369 12.5123 178.82 12.3979 179.231 12.191L179.991 14.518C179.274 14.8162 178.507 14.9757 177.731 14.988C175.337 15.077 173.77 13.712 173.77 10.959V6.19199H171.711V3.84299H173.77V0.999985L176.5 0.708984Z" fill="white"/>
<path d="M193.673 9.34802C193.671 10.4815 193.334 11.5892 192.704 12.5314C192.074 13.4735 191.179 14.208 190.132 14.6422C189.084 15.0763 187.932 15.1908 186.82 14.9711C185.708 14.7513 184.686 14.2073 183.883 13.4075C183.08 12.6077 182.531 11.588 182.307 10.477C182.082 9.36594 182.192 8.21328 182.621 7.16434C183.051 6.1154 183.781 5.21714 184.721 4.58283C185.66 3.94851 186.766 3.60653 187.9 3.60002C188.663 3.57265 189.424 3.70242 190.135 3.98127C190.846 4.26012 191.493 4.68211 192.034 5.22106C192.575 5.76002 193 6.40443 193.282 7.11435C193.564 7.82427 193.697 8.58454 193.673 9.34802ZM184.923 9.34802C184.893 9.7604 184.948 10.1746 185.085 10.5647C185.222 10.9548 185.438 11.3124 185.72 11.6153C186.001 11.9181 186.342 12.1597 186.721 12.3248C187.1 12.49 187.509 12.5753 187.923 12.5753C188.336 12.5753 188.745 12.49 189.124 12.3248C189.504 12.1597 189.844 11.9181 190.126 11.6153C190.407 11.3124 190.624 10.9548 190.761 10.5647C190.898 10.1746 190.953 9.7604 190.923 9.34802C190.943 8.93588 190.881 8.52383 190.741 8.13577C190.601 7.7477 190.385 7.39137 190.106 7.08743C189.827 6.7835 189.49 6.53803 189.115 6.36527C188.741 6.1925 188.335 6.09588 187.923 6.08102C187.507 6.08401 187.096 6.17264 186.715 6.34139C186.335 6.51013 185.994 6.75539 185.712 7.06187C185.431 7.36835 185.215 7.7295 185.08 8.12281C184.944 8.51613 184.89 8.93319 184.923 9.34802Z" fill="white"/>
<path d="M204.8 14.8529V9.07795C204.8 7.39995 203.882 6.12395 202.136 6.12395C201.745 6.13402 201.361 6.22284 201.006 6.38509C200.651 6.54733 200.332 6.77966 200.069 7.06813C199.805 7.3566 199.603 7.69527 199.474 8.06384C199.345 8.4324 199.291 8.82324 199.317 9.21294V14.8529H196.609V3.79995H199.048L199.227 5.29995C199.684 4.78871 200.243 4.3776 200.867 4.09245C201.491 3.80729 202.167 3.65425 202.853 3.64294C205.453 3.64294 207.53 5.59194 207.53 9.05994V14.8599L204.8 14.8529Z" fill="white"/>
<path d="M213.338 10.31C213.517 11.675 214.703 12.659 216.629 12.659C217.704 12.6761 218.75 12.3119 219.582 11.631L221.328 13.354C220.038 14.5418 218.337 15.1837 216.584 15.145C212.784 15.145 210.519 12.794 210.519 9.25896C210.482 8.48319 210.609 7.70832 210.892 6.98495C211.174 6.26158 211.606 5.60598 212.16 5.06097C212.713 4.51596 213.375 4.09379 214.103 3.82205C214.83 3.55031 215.607 3.43511 216.382 3.48396C220.075 3.48396 222.382 5.76695 221.955 10.31H213.338ZM219.338 8.04896C219.158 6.61596 218.038 5.90196 216.473 5.90196C215.789 5.84843 215.108 6.03297 214.545 6.42429C213.982 6.8156 213.572 7.38961 213.384 8.04896H219.338Z" fill="white"/>
</svg>
