<svg width="164" height="163" viewBox="0 0 164 163" fill="none" xmlns="http://www.w3.org/2000/svg">
<path d="M69.5609 83.235L73.161 79.6401L62.3699 68.8541L73.156 58.0681L69.556 54.4731L58.77 65.2591L47.984 54.4731L44.3839 58.0681L55.1699 68.8541L44.3939 79.6401L47.994 83.235L58.78 72.4491L69.5609 83.235ZM107.808 106.992H55.5079C53.0999 106.992 51.148 109.266 51.148 112.077C51.148 114.888 53.0999 117.162 55.5079 117.162H107.808C110.216 117.162 112.168 114.887 112.168 112.077C112.168 109.267 110.216 106.992 107.808 106.992ZM81.658 0.206055C65.5686 0.207835 49.8411 4.98053 36.4641 13.9206C23.0872 22.8607 12.6616 35.5667 6.50575 50.4319C0.349895 65.297 -1.25978 81.6538 1.88026 97.4337C5.02031 113.214 12.769 127.708 24.1466 139.084C35.5242 150.461 50.0197 158.208 65.8001 161.346C81.5804 164.484 97.937 162.872 112.801 156.714C127.666 150.557 140.371 140.13 149.309 126.752C158.247 113.374 163.018 97.6454 163.018 81.5561C163.016 59.9795 154.444 39.2872 139.186 24.0311C123.928 8.77512 103.235 0.204994 81.658 0.206055ZM81.658 152.737C67.5804 152.735 53.8195 148.559 42.1153 140.736C30.4112 132.914 21.2894 121.796 15.9035 108.79C10.5175 95.7832 9.10928 81.4716 11.8568 67.6648C14.6044 53.8579 21.3842 41.1758 31.3392 31.222C41.2942 21.2683 53.9773 14.49 67.7845 11.7442C81.5917 8.99836 95.9031 10.4084 108.909 15.796C121.915 21.1836 133.031 30.3067 140.852 42.0119C148.673 53.717 152.848 67.4785 152.848 81.5561C152.848 90.9044 151.006 100.161 147.428 108.798C143.85 117.434 138.606 125.281 131.996 131.891C125.385 138.501 117.537 143.744 108.9 147.321C100.263 150.898 91.0063 152.738 81.658 152.737ZM115.326 54.4731L104.54 65.2591L93.754 54.4731L90.1539 58.0681L100.94 68.8541L90.159 79.6401L93.7589 83.235L104.545 72.4491L115.331 83.235L118.931 79.6401L108.145 68.8541L118.931 58.0681L115.326 54.4731Z" fill="#F3B23E"/>
</svg>
