<svg width="123" height="124" viewBox="0 0 123 124" fill="none" xmlns="http://www.w3.org/2000/svg">
<path d="M58.031 0.73291H65.216C66.003 0.82391 66.7899 0.919906 67.5779 1.00391C80.9407 2.31285 93.5041 7.97383 103.337 17.1167C113.17 26.2596 119.729 38.3785 122.005 51.611C122.405 53.878 122.631 56.172 122.937 58.454V65.6389C122.868 65.9829 122.782 66.325 122.731 66.672C122.324 69.472 122.077 72.3009 121.499 75.0619C114.999 106.142 84.8699 127.247 53.3669 122.809C41.5682 121.317 30.4906 116.313 21.572 108.446C5.85199 94.4989 -1.13286 76.8859 0.649139 55.9929C1.69838 43.3178 6.85191 31.3306 15.3288 21.849C24.5276 11.11 37.2224 3.96308 51.175 1.66797C53.446 1.27197 55.745 1.03891 58.031 0.73291ZM113.46 62.0179C113.455 51.7656 110.409 41.7451 104.708 33.2236C99.0077 24.7022 90.9084 18.0623 81.4343 14.144C71.9602 10.2257 61.5369 9.20488 51.4826 11.2104C41.4283 13.216 32.1946 18.1581 24.9489 25.4115C17.7033 32.6649 12.7713 41.9041 10.7766 51.9606C8.78187 62.017 9.81387 72.4391 13.7424 81.9089C17.6709 91.3788 24.3198 99.471 32.8474 105.162C41.375 110.854 51.3987 113.888 61.6511 113.883C68.4614 113.89 75.2062 112.553 81.4987 109.948C87.7913 107.343 93.5075 103.522 98.3205 98.704C103.134 93.8858 106.948 88.1649 109.546 81.8696C112.144 75.5743 113.474 68.8282 113.46 62.0179Z" fill="#F3B23E"/>
<path d="M62.6416 68.3619C73.4416 68.8619 82.9099 73.553 88.9419 84.179C89.4034 84.9968 89.7997 85.8498 90.127 86.73C90.4669 87.5953 90.4658 88.5572 90.1245 89.422C89.7832 90.2868 89.1269 90.99 88.2876 91.3899C87.4483 91.7898 86.4887 91.8567 85.6021 91.577C84.7155 91.2974 83.9677 90.692 83.5098 89.8829C82.7978 88.6699 82.2719 87.337 81.4839 86.183C79.5508 83.2688 76.9742 80.8377 73.9527 79.0771C70.9311 77.3166 67.5451 76.2737 64.0567 76.0289C60.928 75.6597 57.7571 75.9174 54.729 76.7866C51.7009 77.6559 48.8764 79.1194 46.4199 81.0919C43.6953 83.2515 41.5184 86.0231 40.0659 89.1819C39.1429 91.1309 37.5159 92.037 35.7779 91.647C35.2107 91.5274 34.6794 91.2773 34.2256 90.9166C33.7718 90.556 33.4081 90.0946 33.1636 89.5691C32.9191 89.0436 32.8001 88.4683 32.8164 87.8889C32.8328 87.3095 32.984 86.7419 33.2578 86.231C35.3451 81.511 38.6547 77.4339 42.8447 74.4209C48.4157 70.3719 54.6986 68.4699 62.6416 68.3619Z" fill="#F3B23E"/>
<path d="M78.4782 38.308C79.4172 38.3152 80.3455 38.5073 81.2102 38.8734C82.0749 39.2394 82.859 39.7723 83.5178 40.4414C84.1766 41.1105 84.6969 41.9028 85.0495 42.773C85.4021 43.6433 85.5798 44.5744 85.5725 45.5134C85.5652 46.4524 85.3731 47.3806 85.0071 48.2453C84.641 49.11 84.1083 49.8942 83.4392 50.5529C82.7701 51.2117 81.9779 51.7323 81.1076 52.0849C80.2374 52.4375 79.3059 52.6152 78.3669 52.6079C77.428 52.6006 76.4997 52.4085 75.635 52.0425C74.7703 51.6764 73.9861 51.1436 73.3274 50.4745C72.6686 49.8054 72.1482 49.0131 71.7956 48.1428C71.443 47.2725 71.2654 46.3414 71.2727 45.4024C71.28 44.4635 71.4721 43.5352 71.8381 42.6705C72.2042 41.8058 72.7369 41.0217 73.406 40.3629C74.0751 39.7041 74.8673 39.1835 75.7375 38.8309C76.6078 38.4783 77.5393 38.3007 78.4782 38.308Z" fill="#F3B23E"/>
<path d="M53.0481 45.397C53.0583 46.8094 52.6496 48.1931 51.8733 49.3731C51.097 50.553 49.9878 51.4762 48.6867 52.0259C47.3856 52.5756 45.9509 52.727 44.5637 52.4611C43.1765 52.1951 41.8993 51.5237 40.8938 50.5317C39.8883 49.5398 39.1996 48.2719 38.9148 46.8884C38.63 45.505 38.7617 44.0682 39.2937 42.7598C39.8256 41.4513 40.7337 40.3301 41.903 39.5378C43.0724 38.7456 44.4506 38.3179 45.863 38.309C47.7527 38.3062 49.5671 39.049 50.9123 40.3761C52.2576 41.7032 53.0252 43.5074 53.0481 45.397Z" fill="#F3B23E"/>
</svg>
