<svg width="12" height="12" viewBox="0 0 12 12" fill="none" xmlns="http://www.w3.org/2000/svg">
<path d="M11.386 3.20498C11.315 1.49498 10.549 0.656958 8.93898 0.585958C6.73898 0.485958 4.51998 0.530974 2.31398 0.626974C1.74774 0.64128 1.20938 0.875688 0.813184 1.28048C0.416983 1.68527 0.194129 2.22853 0.191968 2.79494C0.125301 5.04494 0.125301 7.2973 0.191968 9.55196C0.191909 10.0865 0.390175 10.6021 0.748364 10.9989C1.10655 11.3957 1.59922 11.6455 2.13099 11.7C3.32099 11.867 4.53097 11.8659 5.73597 11.9379C5.73597 11.8919 5.73597 11.8449 5.73597 11.7979C6.81097 11.7979 7.88798 11.84 8.96098 11.788C9.26985 11.7968 9.57737 11.7438 9.86546 11.632C10.1536 11.5203 10.4164 11.3521 10.6386 11.1374C10.8608 10.9227 11.0378 10.6657 11.1593 10.3816C11.2808 10.0975 11.3442 9.79192 11.346 9.48293C11.438 7.39293 11.473 5.29398 11.386 3.20498ZM5.76597 9.71194C5.29627 9.71767 4.83015 9.62986 4.39473 9.45363C3.9593 9.27741 3.56328 9.01631 3.22978 8.68551C2.89628 8.3547 2.63197 7.96086 2.45222 7.52688C2.27247 7.09289 2.18089 6.62747 2.18281 6.15774C2.18474 5.688 2.28012 5.22335 2.46342 4.79085C2.64672 4.35836 2.91427 3.96663 3.25047 3.63857C3.58667 3.31051 3.98479 3.05268 4.42164 2.88003C4.8585 2.70737 5.32536 2.62337 5.795 2.63296C6.72849 2.64747 7.61948 3.02557 8.27852 3.68685C8.93755 4.34813 9.31264 5.24043 9.32399 6.17397C9.32347 6.64013 9.23092 7.10156 9.05168 7.53188C8.87244 7.9622 8.61004 8.35291 8.27949 8.6816C7.94894 9.01029 7.55676 9.27054 7.12544 9.44735C6.69412 9.62416 6.23212 9.71404 5.76597 9.71194ZM9.46599 3.30196C9.25394 3.29707 9.05171 3.21165 8.90034 3.06307C8.74898 2.91449 8.65982 2.71389 8.65098 2.50197C8.65141 2.28248 8.73722 2.07173 8.89027 1.91439C9.04332 1.75705 9.25159 1.66545 9.47099 1.65896C9.68204 1.66928 9.88207 1.75624 10.0336 1.90352C10.1851 2.0508 10.2777 2.24827 10.294 2.45894C10.2927 2.67988 10.2051 2.89157 10.0498 3.04873C9.8945 3.20588 9.6839 3.29603 9.46299 3.29995L9.46599 3.30196Z" fill="white"/>
</svg>
