<svg width="25" height="25" viewBox="0 0 25 25" fill="none" xmlns="http://www.w3.org/2000/svg">
<path d="M12.1119 0.309046C9.7474 0.376428 7.45506 1.13853 5.52087 2.50033C3.58668 3.86213 2.09626 5.76333 1.23559 7.9667C0.374927 10.1701 0.182091 12.5781 0.681149 14.8903C1.18021 17.2026 2.3491 19.3167 4.04193 20.969C5.73476 22.6212 7.87657 23.7384 10.2003 24.1812C12.5239 24.6241 14.9266 24.3728 17.1085 23.4589C19.2903 22.5451 21.1547 21.009 22.4692 19.0423C23.7836 17.0757 24.4899 14.7655 24.4999 12.4C24.5094 10.7844 24.1932 9.18335 23.5702 7.69259C22.9473 6.20183 22.0303 4.85188 20.874 3.72335C19.7178 2.59483 18.346 1.71086 16.8406 1.12423C15.3351 0.537605 13.7269 0.260383 12.1119 0.309046ZM18.137 10.928C17.0576 10.9593 15.996 10.6485 15.1039 10.04C15.0939 10.223 15.0789 10.358 15.0789 10.492C15.0789 11.715 15.0929 12.939 15.0789 14.162C15.1101 14.9448 14.9478 15.7233 14.6063 16.4283C14.2647 17.1334 13.7545 17.7433 13.1209 18.204C12.5652 18.6107 11.9132 18.8656 11.2291 18.9437C10.5449 19.0218 9.85222 18.9204 9.21917 18.6494C8.58613 18.3785 8.03455 17.9473 7.61877 17.3984C7.20299 16.8495 6.93735 16.2018 6.84796 15.519C6.73333 14.9265 6.74732 14.3163 6.88903 13.7298C7.03075 13.1432 7.29684 12.594 7.66931 12.1192C8.04178 11.6444 8.51193 11.2551 9.04791 10.9779C9.58389 10.7006 10.1732 10.5417 10.7759 10.512C10.9639 10.496 11.1519 10.485 11.3759 10.469V12.64C10.9149 12.784 10.4629 12.893 10.0359 13.065C9.64989 13.1935 9.32218 13.4553 9.11163 13.8035C8.90108 14.1517 8.82146 14.5635 8.88696 14.9651C8.93799 15.4325 9.14833 15.8682 9.48266 16.1989C9.817 16.5296 10.255 16.7351 10.723 16.781C11.1152 16.8388 11.5155 16.7614 11.8579 16.5615C12.2003 16.3616 12.4645 16.0511 12.6069 15.6811C12.779 15.2339 12.8714 14.7601 12.8799 14.281C12.9059 11.601 12.8929 8.92201 12.8929 6.24301V5.74301H15.0529C15.0756 6.55509 15.4072 7.32793 15.9801 7.90396C16.553 8.47999 17.324 8.81586 18.1359 8.84304L18.137 10.928Z" fill="white"/>
</svg>
