<svg width="48" height="26" viewBox="0 0 48 26" fill="none" xmlns="http://www.w3.org/2000/svg">
<path d="M30.5521 14.9996C29.8208 14.5105 29.0514 14.0805 28.2518 13.7136C28.0658 13.6226 27.8807 13.5306 27.6957 13.4376C28.4354 12.9005 29.0535 12.2131 29.5091 11.4206C29.9648 10.6281 30.2477 9.74824 30.3397 8.83869C30.4317 7.92914 30.3306 7.01034 30.0428 6.14264C29.755 5.27494 29.2871 4.47784 28.6698 3.80353C27.5299 2.56457 25.9534 1.8169 24.2728 1.71821C22.5922 1.61951 20.939 2.17757 19.662 3.2746C19.0348 3.79597 18.5165 4.43587 18.1371 5.15778C17.7577 5.87969 17.5248 6.66944 17.451 7.48163C17.3191 8.63094 17.499 9.79454 17.972 10.8503C18.445 11.906 19.1936 12.815 20.139 13.4816C18.7563 13.9469 17.478 14.6787 16.3768 15.6356C15.1246 16.6955 14.1162 18.0135 13.4208 19.4995C12.7253 20.9854 12.3596 22.604 12.348 24.2446C12.3338 24.4023 12.3517 24.5613 12.4007 24.7119C12.4497 24.8624 12.5284 25.0014 12.6327 25.1206C12.7278 25.2141 12.8416 25.2872 12.9662 25.3351C13.0907 25.3831 13.2234 25.4051 13.3568 25.3996H13.3617C13.6617 25.3996 14.3461 25.2876 14.3871 24.2746C14.3988 23.8079 14.4388 23.3423 14.5077 22.8806C14.7432 21.4034 15.324 20.0026 16.2025 18.7919C17.081 17.5812 18.2326 16.5947 19.5638 15.9125C20.8746 15.2377 22.3259 14.8814 23.8001 14.8725C25.2744 14.8636 26.7299 15.2026 28.0487 15.8616C29.649 16.5917 31.0047 17.7682 31.9525 19.2499C32.9003 20.7317 33.4002 22.4556 33.3919 24.2145C33.3746 24.3599 33.3873 24.5074 33.4295 24.6475C33.4718 24.7877 33.5427 24.9176 33.6375 25.0291C33.7324 25.1407 33.8493 25.2313 33.9808 25.2956C34.1123 25.3599 34.2554 25.3963 34.4017 25.4025H34.4588C34.5792 25.4053 34.6988 25.3842 34.8109 25.3403C34.923 25.2963 35.0253 25.2304 35.1117 25.1466C35.2285 25.0171 35.3173 24.8647 35.3719 24.699C35.4265 24.5334 35.4461 24.3582 35.4291 24.1846C35.4221 22.3729 34.9745 20.59 34.1249 18.9898C33.2752 17.3896 32.0491 16.0201 30.5521 14.9996ZM28.328 8.1706C28.3321 8.75371 28.2209 9.3319 28.0008 9.87189C27.7807 10.4119 27.4558 10.903 27.0453 11.3171C26.6347 11.7312 26.1463 12.06 25.6082 12.2847C25.0702 12.5095 24.4931 12.6256 23.91 12.6265H23.9007C22.724 12.6293 21.5947 12.1645 20.7606 11.3344C19.9265 10.5043 19.4562 9.37678 19.4535 8.20002C19.4507 7.02325 19.9153 5.89358 20.7455 5.05951C21.5756 4.22545 22.703 3.75541 23.8797 3.75263H23.8929C24.4748 3.74933 25.0517 3.86121 25.5902 4.08185C26.1286 4.3025 26.6179 4.62747 27.0301 5.03815C27.4424 5.44884 27.7693 5.93707 27.992 6.47468C28.2148 7.01228 28.329 7.58869 28.328 8.1706Z" fill="#A3A3A3"/>
<path d="M45.199 13.9718C44.0674 12.5176 42.5697 11.3898 40.8596 10.7037C41.4446 10.2394 41.9295 9.66126 42.2849 9.00437C42.6404 8.34749 42.8593 7.62541 42.928 6.88169C43.023 6.05497 42.9271 5.21748 42.6482 4.43345C42.3693 3.64942 41.9144 2.93974 41.3186 2.35874C40.2886 1.32669 38.8981 0.73485 37.4402 0.707987C35.9823 0.681124 34.571 1.2213 33.5037 2.2147C32.9491 2.71939 32.505 3.33359 32.1995 4.01841C31.894 4.70324 31.7338 5.44385 31.7288 6.19371C31.7054 7.05792 31.8829 7.91583 32.2473 8.69981C32.6117 9.48379 33.1531 10.1725 33.8289 10.7118C33.7909 10.7288 33.755 10.7488 33.718 10.7688L33.0706 11.1317C32.4396 11.4837 31.7877 11.8478 31.1707 12.2528C30.9782 12.3676 30.823 12.5351 30.7229 12.7356C30.6228 12.936 30.5819 13.161 30.6057 13.3838C30.6337 13.5581 30.7123 13.7203 30.8318 13.8503C30.9513 13.9803 31.1062 14.0722 31.2776 14.1147C31.4891 14.1445 31.7047 14.1312 31.9109 14.0755C32.1171 14.0199 32.31 13.923 32.4778 13.7908C33.6241 12.8967 34.996 12.3379 36.4407 12.1762C37.8854 12.0146 39.3463 12.2565 40.6619 12.875C41.9775 13.4935 43.0962 14.4645 43.8933 15.6802C44.6905 16.8958 45.1352 18.3086 45.178 19.7617C45.1779 20.0768 45.2738 20.3845 45.4529 20.6438C45.5388 20.755 45.6496 20.8443 45.7766 20.9044C45.9037 20.9645 46.0433 20.9938 46.1838 20.9897H46.2459C46.5459 20.9737 47.2456 20.8137 47.2146 19.6767C47.1681 17.6088 46.4621 15.6099 45.199 13.9718ZM37.3308 2.74168H37.3377C37.812 2.73374 38.2834 2.82042 38.7239 2.99644C39.1644 3.17246 39.5653 3.43433 39.9036 3.76695C40.2418 4.09956 40.5102 4.49619 40.6936 4.9337C40.877 5.3712 40.9714 5.84091 40.9714 6.31529C40.9714 6.78966 40.877 7.25925 40.6936 7.69676C40.5102 8.13426 40.2418 8.53089 39.9036 8.8635C39.5653 9.19612 39.1644 9.45811 38.7239 9.63413C38.2834 9.81016 37.812 9.89671 37.3377 9.88877C36.8657 9.89005 36.3985 9.7975 35.9627 9.61656C35.5268 9.43562 35.1309 9.16982 34.7986 8.8347C34.4703 8.50925 34.2101 8.12188 34.033 7.69493C33.8558 7.26797 33.7654 6.81001 33.7669 6.34776C33.76 5.87609 33.8468 5.40774 34.0227 4.97007C34.1987 4.5324 34.4603 4.13408 34.7918 3.79844C35.1232 3.4628 35.518 3.19655 35.9534 3.01512C36.3888 2.83368 36.8562 2.7407 37.3279 2.74168H37.3308Z" fill="#A3A3A3"/>
<path d="M16.3072 14.2129C16.4377 14.1959 16.5632 14.1524 16.6763 14.0852C16.7895 14.018 16.8876 13.9284 16.9649 13.8219C17.0518 13.7133 17.1157 13.5881 17.1524 13.454C17.1891 13.3199 17.1978 13.1797 17.1783 13.042C17.1588 12.9043 17.1116 12.7721 17.0391 12.6534C16.9667 12.5348 16.8705 12.4322 16.7569 12.3519C16.5997 12.2035 16.427 12.0727 16.2413 11.9619C15.5563 11.5619 14.869 11.1759 14.168 10.7789L14.004 10.6849C14.6267 10.1728 15.1326 9.53307 15.4874 8.80907C15.8422 8.08507 16.0379 7.29346 16.0611 6.48754C16.0843 5.68161 15.9347 4.88005 15.6221 4.13683C15.3096 3.39361 14.8413 2.72597 14.2491 2.17882C13.1486 1.17843 11.6974 0.653104 10.2115 0.717153C8.72565 0.781202 7.32534 1.42948 6.31502 2.52086C4.14602 4.82086 4.40025 7.98792 6.93025 10.6749L6.62215 10.8348C6.10467 11.0907 5.60014 11.3724 5.11092 11.6788C3.77894 12.5089 2.67046 13.6522 1.88142 15.0089C1.09239 16.3656 0.646895 17.8947 0.584061 19.4629C0.545929 19.6784 0.552363 19.8995 0.603104 20.1124C0.653846 20.3254 0.747738 20.5257 0.878983 20.7009C0.970671 20.7963 1.08146 20.8712 1.20418 20.9206C1.3269 20.9701 1.45868 20.993 1.5909 20.9879H1.5992C2.5602 20.9879 2.59929 19.9828 2.61629 19.5528C2.68405 18.0991 3.15582 16.6932 3.97908 15.4932C4.80234 14.2931 5.94409 13.3466 7.27596 12.7601C8.60782 12.1736 10.0771 11.9705 11.5181 12.1735C12.9592 12.3764 14.3151 12.9774 15.4332 13.9089C15.551 14.0157 15.6888 14.0977 15.8389 14.1499C15.9891 14.2021 16.1486 14.2235 16.3072 14.2129ZM14.025 6.41283C14.0178 6.87488 13.9189 7.331 13.734 7.75451C13.5491 8.17801 13.2823 8.56051 12.9483 8.87987C12.4387 9.37606 11.7922 9.70897 11.0924 9.83617C10.3925 9.96338 9.67079 9.87908 9.01912 9.59398C8.36745 9.30888 7.81572 8.83601 7.43416 8.23571C7.0526 7.6354 6.85853 6.93493 6.87703 6.22387C6.90438 5.28999 7.29507 4.40357 7.9659 3.75329C8.63673 3.103 9.53504 2.74011 10.4693 2.74181H10.5211C10.9854 2.74647 11.4442 2.84351 11.8707 3.02721C12.2971 3.21091 12.6826 3.47767 13.005 3.81188C13.339 4.15611 13.6013 4.56333 13.7764 5.00988C13.9516 5.45642 14.036 5.93331 14.025 6.41283Z" fill="#A3A3A3"/>
</svg>
