<svg width="30" height="32" viewBox="0 0 30 32" fill="none" xmlns="http://www.w3.org/2000/svg">
<path d="M23.7443 17.6999C22.8163 17.0778 21.84 16.5307 20.8251 16.0639L20.4252 15.8639C21.3283 15.1499 22.0746 14.2573 22.6176 13.2421C23.1605 12.2269 23.4884 11.1106 23.5809 9.96304C23.6735 8.81545 23.5285 7.66115 23.1552 6.57205C22.7818 5.48294 22.1883 4.48248 21.4113 3.63296C19.9396 2.03344 17.9041 1.06813 15.7343 0.9407C13.5645 0.813273 11.4299 1.53359 9.78114 2.94986C8.97098 3.6228 8.30192 4.44925 7.81214 5.38162C7.32236 6.31399 7.0215 7.33401 6.92713 8.38296C6.76127 9.80044 6.96615 11.2367 7.52161 12.5513C8.07708 13.8659 8.96407 15.0139 10.0961 15.883C8.46441 16.4779 6.95606 17.3676 5.64613 18.508C4.04763 19.8606 2.76038 21.5428 1.87269 23.4394C0.984997 25.3359 0.517782 27.4019 0.50306 29.4959C0.483854 29.7221 0.510957 29.9499 0.58265 30.1653C0.654342 30.3807 0.769115 30.5793 0.920052 30.7489C1.05904 30.887 1.22507 30.9951 1.4076 31.0663C1.59013 31.1375 1.78529 31.1703 1.98109 31.1629H1.98719C2.19584 31.1688 2.40333 31.1302 2.59583 31.0495C2.78833 30.9687 2.96139 30.8478 3.1034 30.6949C3.24541 30.5419 3.35313 30.3603 3.41932 30.1624C3.4855 29.9644 3.50863 29.7545 3.48719 29.5469C3.50218 28.9677 3.55217 28.39 3.63709 27.8169C3.92867 25.9898 4.6472 24.2572 5.73402 22.7598C6.82084 21.2624 8.24544 20.0424 9.89222 19.1989C11.5132 18.3649 13.3078 17.9246 15.1307 17.9138C16.9537 17.9031 18.7535 18.3221 20.3842 19.1369C22.3638 20.0406 24.0402 21.4968 25.2123 23.3303C26.3843 25.1639 27.002 27.2968 26.9911 29.4729C27.0531 30.8179 27.8253 31.1369 28.4633 31.1669C28.4903 31.1669 28.5171 31.1669 28.5441 31.1669C28.7227 31.171 28.9003 31.1393 29.0665 31.0739C29.2327 31.0085 29.3842 30.9106 29.5121 30.7859C29.6818 30.604 29.8108 30.3879 29.8903 30.1521C29.9698 29.9164 29.9981 29.6664 29.9733 29.4188C29.9633 27.1068 29.391 24.8318 28.3058 22.7902C27.2206 20.7486 25.6551 19.0016 23.7443 17.6999ZM15.2443 3.9219C15.9503 3.92065 16.6496 4.0585 17.3024 4.32754C17.9552 4.59658 18.5486 4.99152 19.0487 5.48989C19.5488 5.98827 19.9458 6.58025 20.2172 7.23208C20.4885 7.88391 20.629 8.58279 20.6303 9.28885C20.6315 9.9949 20.4935 10.6943 20.2245 11.3471C19.9555 11.9999 19.5605 12.5933 19.0621 13.0934C18.5638 13.5935 17.9718 13.9906 17.32 14.262C16.6681 14.5333 15.9691 14.6737 15.2631 14.675H15.2521C13.8261 14.6784 12.4574 14.1153 11.4467 13.1094C10.4359 12.1035 9.86613 10.7374 9.86268 9.31143C9.85923 7.88549 10.4223 6.51661 11.4281 5.50589C12.434 4.49516 13.8003 3.92535 15.2262 3.9219H15.2443Z" fill="#A3A3A3"/>
</svg>
