<svg width="43" height="43" viewBox="0 0 43 43" fill="none" xmlns="http://www.w3.org/2000/svg">
<path d="M21.3272 0.310791C17.1262 0.310791 13.0193 1.55646 9.52637 3.89038C6.03345 6.22431 3.31119 9.54169 1.70362 13.4229C0.096041 17.304 -0.32451 21.5746 0.495121 25.6948C1.31475 29.815 3.33803 33.5996 6.3086 36.5701C9.27917 39.5405 13.0639 41.5634 17.1841 42.3828C21.3043 43.2023 25.575 42.7815 29.4561 41.1737C33.3371 39.5659 36.654 36.8434 38.9878 33.3503C41.3216 29.8573 42.5671 25.7507 42.5669 21.5498C42.5669 18.7606 42.0176 15.9987 40.9502 13.4218C39.8828 10.8449 38.318 8.50336 36.3457 6.53113C34.3734 4.55889 32.032 2.99455 29.4551 1.92725C26.8781 0.859945 24.1164 0.31066 21.3272 0.310791ZM35.4448 13.3387C28.7808 23.2827 26.1061 26.4748 20.8711 34.2108C20.6397 34.5788 20.329 34.8904 19.9619 35.1233C19.5948 35.3561 19.1805 35.5042 18.749 35.5568C18.3055 35.5903 17.8599 35.5248 17.4448 35.365C17.0297 35.2052 16.6557 34.9551 16.3491 34.6328C13.5831 31.9198 10.7058 29.0388 7.54883 25.8258C7.13923 25.4247 6.85722 24.9116 6.73829 24.3508C6.61935 23.7901 6.66884 23.2066 6.88037 22.6738C7.09191 22.141 7.45653 21.6826 7.92774 21.3561C8.39894 21.0296 8.95566 20.8496 9.52881 20.8387C10.3342 20.8526 11.102 21.1827 11.666 21.7578C12.996 23.0508 14.282 24.3527 15.644 25.7307C16.234 26.3307 16.8339 26.9367 17.4439 27.5487L17.9858 28.0938L27.4448 14.8177C27.7782 14.3211 28.1115 13.8228 28.4448 13.3228C29.1448 12.2728 29.8711 11.1857 30.6001 10.1317C30.7998 9.79024 31.0668 9.49318 31.3853 9.25854C31.7037 9.02391 32.0668 8.85673 32.4522 8.76721C32.8375 8.67769 33.2372 8.66772 33.6265 8.73792C34.0158 8.80811 34.3865 8.95695 34.7163 9.17542C35.0461 9.39388 35.328 9.67733 35.5444 10.0084C35.7609 10.3395 35.9073 10.7114 35.9751 11.1011C36.0429 11.4908 36.0308 11.8903 35.939 12.275C35.8471 12.6598 35.6775 13.0217 35.4409 13.3387H35.4448Z" fill="#A3A3A3"/>
</svg>
